HIERARCHY
ROOT Pelvis
{
	OFFSET 0.000000 0.000000 0.000000
	CHANNELS 6 Xposition Yposition Zposition Xrotation Yrotation Zrotation
	JOINT LeftUpLeg_virtual
	{
		OFFSET 0.000000 0.000000 0.000000
		CHANNELS 3 Xrotation Yrotation Zrotation
		JOINT LeftUpLeg
		{
			OFFSET 18.735201 -5.666702 -4.541200
			CHANNELS 3 Xrotation Yrotation Zrotation
			JOINT LeftLeg
			{
				OFFSET -0.021200 -31.938179 0.493100
				CHANNELS 3 Xrotation Yrotation Zrotation
				JOINT LeftFoot
				{
					OFFSET 0.021200 -31.938179 -4.336299
					CHANNELS 3 Xrotation Yrotation Zrotation
					JOINT LeftToeBase
					{
						OFFSET 0.943001 -26.722000 15.023500
						CHANNELS 3 Xrotation Yrotation Zrotation
						End Site
						{
							OFFSET 0 0 0
						}
					}
				}
			}
		}
	}
	JOINT RightUpLeg_virtual
	{
		OFFSET 0.000000 0.000000 0.000000
		CHANNELS 3 Xrotation Yrotation Zrotation
		JOINT RightUpLeg
		{
			OFFSET -18.735201 -5.666702 -4.541200
			CHANNELS 3 Xrotation Yrotation Zrotation
			JOINT RightLeg
			{
				OFFSET 0.018946 -31.938133 0.493100
				CHANNELS 3 Xrotation Yrotation Zrotation
				JOINT RightFoot
				{
					OFFSET -0.018946 -31.938126 -4.336299
					CHANNELS 3 Xrotation Yrotation Zrotation
					JOINT RightToeBase
					{
						OFFSET -0.943001 -26.722004 15.023500
						CHANNELS 3 Xrotation Yrotation Zrotation
						End Site
						{
							OFFSET 0 0 0
						}
					}
				}
			}
		}
	}
	JOINT Hips_virtual
	{
		OFFSET 0.000000 0.000000 0.000000
		CHANNELS 3 Xrotation Yrotation Zrotation
		JOINT Hips
		{
			OFFSET -0.000000 -0.000000 -0.000000
			CHANNELS 3 Xrotation Yrotation Zrotation
			JOINT Spine
			{
				OFFSET 0.000000 10.199997 -0.299500
				CHANNELS 3 Xrotation Yrotation Zrotation
				JOINT Spine1
				{
					OFFSET 0.000000 11.900002 -1.516600
					CHANNELS 3 Xrotation Yrotation Zrotation
					JOINT Spine2
					{
						OFFSET 0.000000 13.600006 -2.842500
						CHANNELS 3 Xrotation Yrotation Zrotation
						JOINT Neck_virtual
						{
							OFFSET 0.000000 0.000000 0.000000
							CHANNELS 3 Xrotation Yrotation Zrotation
							JOINT Neck
							{
								OFFSET 0.000000 9.624100 -2.890100
								CHANNELS 3 Xrotation Yrotation Zrotation
								JOINT Head
								{
									OFFSET 0.000000 14.068802 -1.351900
									CHANNELS 3 Xrotation Yrotation Zrotation
									End Site
									{
										OFFSET 0 0 0
									}
								}
							}
						}
						JOINT LeftShoulder_virtual
						{
							OFFSET 0.000000 0.000000 0.000000
							CHANNELS 3 Xrotation Yrotation Zrotation
							JOINT LeftShoulder
							{
								OFFSET 15.263000 10.923401 -0.547700
								CHANNELS 3 Xrotation Yrotation Zrotation
								JOINT LeftArm
								{
									OFFSET 25.438599 -2.830597 -13.032500
									CHANNELS 3 Xrotation Yrotation Zrotation
									JOINT LeftForeArm
									{
										OFFSET 29.960503 0.000000 0.000000
										CHANNELS 3 Xrotation Yrotation Zrotation
										JOINT LeftHand
										{
											OFFSET 27.849251 0.000000 0.000000
											CHANNELS 3 Xrotation Yrotation Zrotation
											End Site
											{
												OFFSET 0 0 0
											}
										}
									}
								}
							}
						}
						JOINT RightShoulder_virtual
						{
							OFFSET 0.000000 0.000000 0.000000
							CHANNELS 3 Xrotation Yrotation Zrotation
							JOINT RightShoulder
							{
								OFFSET -15.263000 10.923401 -0.547700
								CHANNELS 3 Xrotation Yrotation Zrotation
								JOINT RightArm
								{
									OFFSET -25.438599 -2.830597 -13.032500
									CHANNELS 3 Xrotation Yrotation Zrotation
									JOINT RightForeArm
									{
										OFFSET -29.960503 0.000000 0.000000
										CHANNELS 3 Xrotation Yrotation Zrotation
										JOINT RightHand
										{
											OFFSET -27.849251 0.000000 0.000000
											CHANNELS 3 Xrotation Yrotation Zrotation
											End Site
											{
												OFFSET 0 0 0
											}
										}
									}
								}
							}
						}
					}
				}
			}
		}
	}
}
MOTION
Frames: 7
Frame Time: 0.03333333
-5.097417 79.643730 4.388695 0.000000 0.000000 0.000000 -8.082535 -12.041297 -0.209651 -37.950385 3.357944 17.440261 69.406764 -8.564139 -0.235751 -26.126141 -1.025035 -15.609882 0.000000 0.000000 0.000000 -8.065929 -11.223647 0.146707 -32.083072 3.750972 -25.466461 75.801747 -0.974800 7.635581 -46.136435 9.876585 14.967419 0.000000 0.000000 0.000000 -7.858834 -11.168078 0.137283 -0.845536 0.023377 -0.006294 21.034679 1.751629 2.069107 15.198066 -6.322356 3.702926 0.000000 0.000000 0.000000 18.678090 -2.122199 1.798600 0.815294 -2.095086 3.559324 0.000000 0.000000 0.000000 18.615283 -2.423513 1.710999 2.271896 -16.335864 6.081862 -22.613342 6.062731 -77.356380 163.611635 -69.223387 162.078545 0.000000 0.000000 0.000000 15.566519 -1.222532 0.673145 18.505940 7.941924 6.363121 -50.508771 5.591542 68.770887 76.776913 38.854453 -90.780236 0.000000 0.000000 0.000000 
-5.357285 79.924835 5.027161 0.000000 0.000000 0.000000 -9.047616 -12.356413 -0.333957 -36.084736 3.275075 17.244056 68.420436 -8.772532 0.123858 -26.183267 -0.980149 -15.244636 0.000000 0.000000 0.000000 -8.944770 -11.411199 -0.027910 -30.287794 3.524405 -24.935419 75.079174 -1.356797 7.685299 -46.025008 9.577426 15.120570 0.000000 0.000000 0.000000 -9.028913 -11.541030 -0.148124 -0.819876 0.017150 0.005925 19.989303 1.450403 1.845860 15.029020 -6.702934 3.693958 0.000000 0.000000 0.000000 18.800546 -2.374457 1.857090 0.952226 -2.213150 3.825745 0.000000 0.000000 0.000000 18.475411 -2.768022 1.743551 2.582883 -17.829483 6.482407 -19.493643 4.743854 -77.850544 157.358789 -69.403861 155.691389 0.000000 0.000000 0.000000 14.993775 -1.487086 0.640932 19.312585 8.536214 6.408087 -49.744196 3.057140 68.509782 73.065190 36.016670 -88.028216 0.000000 0.000000 0.000000 
-5.679892 80.354874 5.686455 0.000000 0.000000 0.000000 -10.133500 -12.586224 -0.484012 -33.915970 3.102592 16.990656 66.965606 -8.968601 0.452187 -26.156770 -0.872491 -14.588603 0.000000 0.000000 0.000000 -10.038583 -11.545833 -0.194121 -27.958505 3.146231 -24.384392 73.853920 -1.751922 7.712573 -45.619868 9.202469 15.487428 0.000000 0.000000 0.000000 -10.298111 -11.812315 -0.403752 -0.797130 0.003094 0.010754 18.819900 1.012172 1.613430 14.967564 -7.014200 3.738230 0.000000 0.000000 0.000000 18.803171 -2.568254 1.922301 0.849733 -2.305816 3.903704 0.000000 0.000000 0.000000 18.475341 -3.003136 1.966227 2.741171 -18.868486 6.926178 -16.140808 2.297088 -77.657284 150.750417 -69.393902 149.150213 0.000000 0.000000 0.000000 14.733497 -1.665349 0.639667 19.829062 8.807654 6.763106 -49.242703 3.253666 68.353637 69.844066 33.603725 -85.444335 0.000000 0.000000 0.000000 
-6.005408 80.827736 6.310051 0.000000 0.000000 0.000000 -11.242078 -12.677719 -0.628302 -31.706530 2.879915 16.728959 65.223676 -9.147105 0.708091 -26.015171 -0.705234 -13.819965 0.000000 0.000000 0.000000 -11.200706 -11.565287 -0.326707 -25.520133 2.681959 -23.934031 72.386837 -2.072300 7.730303 -44.908589 8.827476 16.017716 0.000000 0.000000 0.000000 -11.518476 -11.965901 -0.597798 -0.778261 -0.013309 0.011176 17.728261 0.475544 1.312569 14.997125 -7.199061 3.812920 0.000000 0.000000 0.000000 18.588961 -2.662783 2.001893 0.485545 -2.373318 3.760452 0.000000 0.000000 0.000000 18.544834 -3.109056 2.307208 2.684374 -19.389509 7.087972 -13.008338 -0.143729 -77.000302 144.903911 -68.834271 143.640094 0.000000 0.000000 0.000000 14.806633 -1.732989 0.660358 20.077116 8.691166 7.597483 -48.450541 5.059198 68.651659 67.114129 31.676177 -83.087004 0.000000 0.000000 0.000000 
-6.283696 81.261307 6.844536 0.000000 0.000000 0.000000 -12.308152 -12.585969 -0.754831 -29.728542 2.667680 16.515640 63.507563 -9.300887 0.865328 -25.719154 -0.483034 -13.110741 0.000000 0.000000 0.000000 -12.336940 -11.445219 -0.420502 -23.304476 2.068530 -23.659796 71.003798 -2.363546 7.845750 -44.272883 8.420351 16.475755 0.000000 0.000000 0.000000 -12.579205 -11.938803 -0.712281 -0.777140 -0.021296 0.004358 16.823625 -0.045196 0.975415 15.054924 -7.231937 3.890517 0.000000 0.000000 0.000000 18.173914 -2.626446 2.103134 -0.083150 -2.402235 3.408185 0.000000 0.000000 0.000000 18.592748 -3.058148 2.639470 2.451421 -19.525513 6.770849 -9.992946 -1.978087 -76.111503 140.108914 -67.985531 139.400527 0.000000 0.000000 0.000000 15.093087 -1.702447 0.669345 20.060293 8.139349 8.932649 -46.793643 7.450132 68.840609 65.227214 30.434858 -81.400740 0.000000 0.000000 0.000000 
-6.481023 81.596848 7.264416 0.000000 0.000000 0.000000 -13.254229 -12.307518 -0.850415 -28.138952 2.477561 16.399976 62.079145 -9.433716 0.933056 -25.321878 -0.218827 -12.602752 0.000000 0.000000 0.000000 -13.349107 -11.177464 -0.482813 -21.495896 1.354368 -23.554746 69.869277 -2.639021 8.053437 -43.897387 7.981900 16.746685 0.000000 0.000000 0.000000 -13.438030 -11.706474 -0.756936 -0.790279 -0.015070 -0.009885 16.046855 -0.487620 0.735970 15.077699 -7.080139 3.920937 0.000000 0.000000 0.000000 17.603344 -2.427161 2.218184 -0.731871 -2.408824 2.891465 0.000000 0.000000 0.000000 18.536940 -2.852574 2.851481 2.077377 -19.439909 5.852927 -7.111710 -3.510603 -75.112779 135.357165 -67.379277 135.318287 0.000000 0.000000 0.000000 15.473857 -1.521928 0.664503 19.851200 7.242825 10.433354 -44.190559 9.688308 68.298156 64.365845 30.099947 -80.475270 0.000000 0.000000 0.000000 
-6.594148 81.835342 7.590694 0.000000 0.000000 0.000000 -14.005223 -11.889224 -0.907618 -26.999825 2.274806 16.394889 61.048374 -9.558485 0.933109 -24.907104 0.065535 -12.399883 0.000000 0.000000 0.000000 -14.131555 -10.791886 -0.524783 -20.170701 0.641184 -23.554066 69.009581 -2.849933 8.280056 -43.719440 7.603313 16.860307 0.000000 0.000000 0.000000 -14.095542 -11.247522 -0.746539 -0.814383 -0.003447 -0.024903 15.355623 -0.860109 0.698471 14.951296 -6.740148 3.885688 0.000000 0.000000 0.000000 16.959983 -2.066440 2.319341 -1.310712 -2.405666 2.284448 0.000000 0.000000 0.000000 18.341484 -2.518188 2.924288 1.590300 -19.389917 4.289721 -4.411776 -4.928276 -73.860354 130.526131 -67.068961 131.126013 0.000000 0.000000 0.000000 15.828813 -1.183327 0.633511 19.510862 6.165162 11.681973 -41.201129 11.418176 66.921565 64.287803 30.416690 -80.188852 0.000000 0.000000 0.000000 
